<svg xmlns="http://www.w3.org/2000/svg" width="140" height="50" viewBox="0 0 140 50">
  <!-- Rounded only on the right side -->
  <rect width="140" height="50" fill="#8a2be2" rx="25" ry="25"/>
  <rect width="70" height="50" fill="#8a2be2"/>
  <!-- Centered LinkedIn logo -->
  <g transform="translate(65,25) scale(0.06) translate(-256,-256)">
    <path fill="white" d="M416 32H31.9C14.3 32 0 46.5 
    0 64.3v383.4C0 465.5 14.3 480 
    31.9 480H416c17.6 0 32-14.5 
    32-32.3V64.3c0-17.8-14.4-32.3
    -32-32.3zM135.4 416H69V202.2h66.5V416zm-33.2
    -243c-21.3 0-38.5-17.3-38.5-38.5S80.9 
    96 102.2 96c21.2 0 38.5 17.3 38.5 
    38.5 0 21.3-17.2 38.5-38.5 
    38.5zm282.1 243h-66.4V312c0-24.8-.5-56.7
    -34.5-56.7-34.6 0-39.9 27-39.9 
    54.9V416h-66.4V202.2h63.7v29.2h.9
    c8.9-16.8 30.6-34.5 62.9-34.5 
    67.2 0 79.7 44.3 79.7 101.9V416z"/>
  </g>
</svg>

